<?xml version="1.0" standalone="no"?><!DOCTYPE svg PUBLIC "-//W3C//DTD SVG 1.1//EN" "http://www.w3.org/Graphics/SVG/1.1/DTD/svg11.dtd"><svg t="1565487472319" class="icon" viewBox="0 0 1291 1024" version="1.1" xmlns="http://www.w3.org/2000/svg" p-id="888" xmlns:xlink="http://www.w3.org/1999/xlink" width="252.1484375" height="200"><defs><style type="text/css"></style></defs><path d="M638.03 543.508c-7.876 0-7.876 0-15.753-7.877L283.569 267.815c-15.754-7.877-23.63-31.507-7.877-47.261 7.877-23.63 23.631-23.63 39.385-15.754L638.03 456.862 968.86 204.8c15.754-7.877 31.508-7.877 39.385 15.754 7.877 15.754 7.877 39.384-7.877 55.138L653.785 535.631c-7.877 7.877-15.754 7.877-15.754 7.877z" p-id="889" fill="#00FFFF"></path><path d="M638.03 866.462c-7.876 0-7.876 0-15.753-7.877L283.569 590.769c-15.754-7.877-23.63-31.507-7.877-55.138 7.877-15.754 23.631-23.631 39.385-7.877L638.03 779.815l330.83-252.061c15.754-7.877 31.508-7.877 39.385 15.754 7.877 15.754 7.877 39.384-7.877 55.138L653.785 858.585c-7.877 0-15.754 7.877-15.754 7.877z" p-id="890" fill="#00FFFF"></path></svg>