<?xml version="1.0" standalone="no"?><!DOCTYPE svg PUBLIC "-//W3C//DTD SVG 1.1//EN" "http://www.w3.org/Graphics/SVG/1.1/DTD/svg11.dtd"><svg t="1565487516961" class="icon" viewBox="0 0 1290 1024" version="1.1" xmlns="http://www.w3.org/2000/svg" p-id="1107" xmlns:xlink="http://www.w3.org/1999/xlink" width="251.953125" height="200"><defs><style type="text/css"></style></defs><path d="M642.56 507.904c7.68 0 7.68 0 15.872 7.68l338.944 267.776c15.872 7.68 23.552 31.744 7.68 47.104-7.68 23.552-23.552 23.552-39.424 15.872l-323.072-251.904-330.752 251.904c-15.872 7.68-31.744 7.68-39.424-15.872-7.68-15.872-7.68-39.424 7.68-55.296l346.624-260.096c7.68-7.168 15.872-7.168 15.872-7.168z" fill="#00FFFF" p-id="1108"></path><path d="M642.56 184.832c7.68 0 7.68 0 15.872 7.68l338.944 267.776c15.872 7.68 23.552 31.744 7.68 55.296-7.68 15.872-23.552 23.552-39.424 7.68L642.56 271.36l-330.752 251.904c-15.872 7.68-31.744 7.68-39.424-15.872-7.68-15.872-7.68-39.424 7.68-55.296l346.624-260.096c7.68 0.512 15.872-7.168 15.872-7.168z" fill="#00FFFF" p-id="1109"></path></svg>